# xmcd
#
# Track frame offsets: 
#        150
#        18797
#        35339
#        44752
#        56976
#        72751
#        87282
#        102004
#        116600
#        131543
#        146934
#        159244
#        172833
#        186852
#        203418
#        214269
#        228981
#        243634
#        257231
#
# Disc length: 3624 seconds
#
# Revision: 1
# Processed by: cddbd v1.5.2PL0 Copyright (c) Steve Scherf et al.
# Submitted via: ExactAudioCopy v1.3
#
DISCID=0b0e2613
DTITLE=Bogdan Trojanek and Terne Roma - Platynowa kolekcja. Złote Przebo
DTITLE=je
DYEAR=2003
DGENRE=Gypsy
TTITLE0=Wiersz
TTITLE1=Paszo wesz
TTITLE2=Buteleczka wina
TTITLE3=Ori dane ne
TTITLE4=Ćhajoryje
TTITLE5=Romane gila
TTITLE6=Aj luba
TTITLE7=Mena som raniasa
TTITLE8=Korokina
TTITLE9=Rodzina
TTITLE10=Lolaj, lolaj
TTITLE11=Naker ćhaje
TTITLE12=Lo li, lo laj
TTITLE13=Szampanija
TTITLE14=Tyrli, tyrli
TTITLE15=Przyszła zima
TTITLE16=Dżelem, dżelem
TTITLE17=Czardasz
TTITLE18=Cygańskie wróżby
EXTD=
EXTT0=
EXTT1=
EXTT2=
EXTT3=
EXTT4=
EXTT5=
EXTT6=
EXTT7=
EXTT8=
EXTT9=
EXTT10=
EXTT11=
EXTT12=
EXTT13=
EXTT14=
EXTT15=
EXTT16=
EXTT17=
EXTT18=
PLAYORDER=
